<svg xmlns="http://www.w3.org/2000/svg" xmlns:xlink="http://www.w3.org/1999/xlink" viewBox="0 0 712.46 168.99"><defs><style>.cls-1,.cls-4{fill:none;}.cls-1,.cls-2{stroke:#524ea0;}.cls-1,.cls-2,.cls-3,.cls-4{stroke-miterlimit:10;}.cls-2,.cls-3{fill:#514da0;}.cls-3,.cls-4{stroke:#524fa1;}.cls-5{font-size:134.78px;font-family:Calibri-Bold, Calibri;font-weight:700;}.cls-6{letter-spacing:-0.02em;}.cls-7{letter-spacing:-0.01em;}.cls-8{fill:url(#linear-gradient);}</style><linearGradient id="linear-gradient" x1="472.95" y1="45.58" x2="472.95" y2="113.61" gradientUnits="userSpaceOnUse"><stop offset="0" stop-color="#252525"/><stop offset="1" stop-color="#1e1e1e"/></linearGradient></defs><g id="Layer_2" data-name="Layer 2"><g id="Layer_1-2" data-name="Layer 1"><line class="cls-1" x1="105.85" y1="133.23" x2="105.34" y2="133.5"/><path class="cls-2" d="M189.14,45.34,182.94,42,168.6,34.29l-5.8-3.13-15.41-8.3-3.75-2L127.21,12l-3.72-2L106,.57l-2,1L84.66,11.79l-.49.25L65.29,22l-.92.49-18.92,10L43,33.67,22.39,44.53,1.06,55.75,22.28,67.18,42.47,78.05l3.64,2,17.58,9.47,2.56,1.38,18,9.68,1.18.64,20,10.79h0l.11-.06,19.21-10.1,2-1.06,17.85-9.38,2.81-1.48,16.07-8.45,5.26-2.77L183.34,71,189,68h0l21.32-11.21ZM163.18,59l-15.65,8.24-3.23,1.7-18.11,9.52-1.74.91-18.91,9.95-.29.15v-.32L85.09,78.29l-.07,0h0L65.93,68,63.8,66.83l-18-9.69L43.61,56l2.15-1.13,18.5-9.73,1.34-.7,18.88-9.93,1.11-.59L104.34,24l1.54-.81,17.93,9.66,2.25,1.21L144,43.71l3.32,1.8L163.11,54l4.7,2.52Z"/><line class="cls-1" x1="105.55" y1="89.32" x2="105.24" y2="89.15"/><polygon class="cls-2" points="164.09 125.18 146.85 134.26 145.21 135.11 145.21 135.12 126.56 144.92 125.36 145.55 106.16 155.66 105.23 156.14 105.22 156.14 86.02 145.8 84 144.72 71.33 137.9 66.86 135.49 63.81 133.85 46.72 124.64 46.66 120.29 46.41 101.76 63.94 111.2 66.55 112.61 85.15 122.63 85.7 122.93 92.66 126.67 105.34 133.5 105.85 133.78 105.84 133.23 125.05 123.13 125.62 122.83 144.9 112.69 146.95 111.61 163.79 102.76 164.03 120.81 164.09 125.18"/><line class="cls-1" x1="188.93" y1="128.25" x2="188.93" y2="127.16"/><line class="cls-1" x1="194.41" y1="128.25" x2="194.41" y2="126.67"/><path class="cls-3" d="M203.83,138.3a14.11,14.11,0,0,0-11.7,10.41,14.09,14.09,0,0,0-12.23-10,11.89,11.89,0,0,0,9-11.55V76.32l5.48-3v53.36A11.88,11.88,0,0,0,203.83,138.3Z"/><line class="cls-4" x1="194.41" y1="73.31" x2="188.93" y2="76.32"/><text class="cls-5" transform="translate(231.2 121.93)">Di<tspan class="cls-6" x="118.06" y="0">r</tspan><tspan x="163.01" y="0">ass</tspan><tspan class="cls-7" x="337.08" y="0">a</tspan><tspan x="402.36" y="0">ti</tspan></text><path class="cls-8" d="M311.22,78.1q0,11.72-3.06,20a34.09,34.09,0,0,1-8.78,13.59,35.2,35.2,0,0,1-13.92,7.73,68,68,0,0,1-19.52,2.47H245.61a5.38,5.38,0,0,1-3.65-1.28,5.26,5.26,0,0,1-1.48-4.18V42.24A5.25,5.25,0,0,1,242,38.06a5.34,5.34,0,0,1,3.65-1.29h21.85a60.93,60.93,0,0,1,19.31,2.67,35,35,0,0,1,13.36,7.9,33.79,33.79,0,0,1,8.26,12.93A51.48,51.48,0,0,1,311.22,78.1Zm-17.9.59a42.9,42.9,0,0,0-1.41-11.25,24.22,24.22,0,0,0-4.54-9,21.25,21.25,0,0,0-8-6q-4.9-2.14-12.87-2.14h-8.75v57.91h9a34,34,0,0,0,12-1.84,20,20,0,0,0,8.13-5.56,24.08,24.08,0,0,0,4.87-9.25A46.4,46.4,0,0,0,293.32,78.69Z"/><path class="cls-8" d="M342.28,41.12q0,5-2,6.91t-7.56,1.91c-3.73,0-6.25-.62-7.54-1.85s-1.94-3.44-1.94-6.64.67-5.65,2-7,3.87-1.94,7.6-1.94,6.18.63,7.5,1.88S342.28,37.91,342.28,41.12ZM341,119.69a1.83,1.83,0,0,1-.39,1.16,3,3,0,0,1-1.35.82,11.79,11.79,0,0,1-2.53.49,47.5,47.5,0,0,1-8,0,11.78,11.78,0,0,1-2.54-.49,3.06,3.06,0,0,1-1.35-.82,1.83,1.83,0,0,1-.39-1.16V61.12a1.82,1.82,0,0,1,.39-1.15,3.17,3.17,0,0,1,1.35-.85,11.29,11.29,0,0,1,2.54-.56,40.4,40.4,0,0,1,8,0,11.32,11.32,0,0,1,2.53.56,3,3,0,0,1,1.35.85,1.82,1.82,0,0,1,.39,1.15Z"/><path class="cls-8" d="M395.26,66.45c0,1.58,0,2.88-.13,3.89a11.72,11.72,0,0,1-.4,2.37,2.24,2.24,0,0,1-.69,1.18,1.72,1.72,0,0,1-1.08.33,3.72,3.72,0,0,1-1.19-.23c-.44-.15-.93-.32-1.48-.49s-1.15-.34-1.81-.5a9.76,9.76,0,0,0-2.17-.23,7.36,7.36,0,0,0-2.76.56,11.47,11.47,0,0,0-2.87,1.74,21.7,21.7,0,0,0-3.09,3.16,51.26,51.26,0,0,0-3.46,4.87v36.59a1.83,1.83,0,0,1-.39,1.16,3,3,0,0,1-1.35.82,11.67,11.67,0,0,1-2.53.49,47.5,47.5,0,0,1-8,0,11.67,11.67,0,0,1-2.53-.49,3,3,0,0,1-1.35-.82,1.78,1.78,0,0,1-.4-1.16V61a2,2,0,0,1,.33-1.15,2.4,2.4,0,0,1,1.18-.82,9.44,9.44,0,0,1,2.21-.5,28.91,28.91,0,0,1,3.39-.16,30.68,30.68,0,0,1,3.49.16,7.94,7.94,0,0,1,2.14.5,2.42,2.42,0,0,1,1.08.82A2,2,0,0,1,371.7,61V68.3A46.28,46.28,0,0,1,376,62.87a24.13,24.13,0,0,1,3.89-3.39,12,12,0,0,1,3.68-1.75,14.18,14.18,0,0,1,3.69-.49,17.4,17.4,0,0,1,1.84.1,15.43,15.43,0,0,1,2,.33,13.9,13.9,0,0,1,1.84.52,3.61,3.61,0,0,1,1.15.63,2,2,0,0,1,.53.72,6,6,0,0,1,.3,1.09,17.13,17.13,0,0,1,.19,2.07C395.24,63.62,395.26,64.87,395.26,66.45Z"/><path class="cls-8" d="M452.51,119.89a1.74,1.74,0,0,1-.65,1.45,4.6,4.6,0,0,1-2.08.76,28.52,28.52,0,0,1-4.18.23,29,29,0,0,1-4.31-.23,3.72,3.72,0,0,1-1.9-.76,1.86,1.86,0,0,1-.56-1.45v-4.67a26.64,26.64,0,0,1-8.26,6,24,24,0,0,1-10.3,2.17,28.86,28.86,0,0,1-8.59-1.21,19.36,19.36,0,0,1-6.78-3.62,16.23,16.23,0,0,1-4.44-6,20.3,20.3,0,0,1-1.58-8.29,18.79,18.79,0,0,1,2-8.92,16.27,16.27,0,0,1,6-6.25,29.86,29.86,0,0,1,9.9-3.65,70.69,70.69,0,0,1,13.75-1.19h5.73V80.8A18.88,18.88,0,0,0,435.7,76a8.07,8.07,0,0,0-1.84-3.45,7.68,7.68,0,0,0-3.42-2,18.27,18.27,0,0,0-5.3-.66,27.47,27.47,0,0,0-7.41.92,43.67,43.67,0,0,0-5.75,2q-2.5,1.13-4.18,2a6,6,0,0,1-2.73.92,1.94,1.94,0,0,1-1.29-.46,3.3,3.3,0,0,1-.92-1.31,9.16,9.16,0,0,1-.56-2.11,17.88,17.88,0,0,1-.2-2.76,12.55,12.55,0,0,1,.33-3.23,5,5,0,0,1,1.25-2.14,12.34,12.34,0,0,1,3.23-2.1,37.57,37.57,0,0,1,5.39-2.14,49.14,49.14,0,0,1,6.75-1.61,44.35,44.35,0,0,1,7.54-.63,45,45,0,0,1,11.81,1.35,19.88,19.88,0,0,1,8.06,4.15,16.07,16.07,0,0,1,4.61,7.2,33.87,33.87,0,0,1,1.44,10.47ZM436.26,94.75h-6.32a34.27,34.27,0,0,0-6.84.59,13.25,13.25,0,0,0-4.61,1.78,7.36,7.36,0,0,0-2.6,2.86,8.64,8.64,0,0,0-.82,3.85,7.38,7.38,0,0,0,2.34,5.79,9.28,9.28,0,0,0,6.48,2.11A12.08,12.08,0,0,0,430.3,110a26.18,26.18,0,0,0,6-5.2Z"/><path class="cls-8" d="M510.36,103.11a19.8,19.8,0,0,1-1.87,8.82,17.59,17.59,0,0,1-5.3,6.38,23.76,23.76,0,0,1-8.1,3.85A37.92,37.92,0,0,1,485,123.44a38.35,38.35,0,0,1-6.28-.49,38.81,38.81,0,0,1-5.37-1.25,27.39,27.39,0,0,1-3.95-1.55,9.53,9.53,0,0,1-2.3-1.48,4.56,4.56,0,0,1-1.12-2.17,18.34,18.34,0,0,1-.39-4.37,27.5,27.5,0,0,1,.13-3.06,7.77,7.77,0,0,1,.39-1.85,1.8,1.8,0,0,1,.66-.92,2,2,0,0,1,1-.23,5.05,5.05,0,0,1,2.14.82c.94.55,2.11,1.16,3.52,1.81a36.47,36.47,0,0,0,4.9,1.85,21.69,21.69,0,0,0,6.35.85,15.49,15.49,0,0,0,4-.46,10,10,0,0,0,3-1.32,5.54,5.54,0,0,0,1.94-2.17,6.61,6.61,0,0,0,.66-3A5,5,0,0,0,493,101a10.74,10.74,0,0,0-3.22-2.47,39,39,0,0,0-4.54-2c-1.69-.61-3.43-1.29-5.2-2a47.27,47.27,0,0,1-5.2-2.56,19.63,19.63,0,0,1-4.54-3.56,16.08,16.08,0,0,1-3.23-5.06,18.74,18.74,0,0,1-1.22-7.11,18,18,0,0,1,1.65-7.73,16.91,16.91,0,0,1,4.74-6,22.52,22.52,0,0,1,7.53-3.88,33.61,33.61,0,0,1,10-1.38,36.2,36.2,0,0,1,5.37.39,41.41,41.41,0,0,1,4.7,1,22.06,22.06,0,0,1,3.56,1.29,11.93,11.93,0,0,1,2.07,1.18,3.32,3.32,0,0,1,.89,1,4.42,4.42,0,0,1,.39,1.18A16.67,16.67,0,0,1,507,65c.07.68.1,1.53.1,2.54,0,1.18,0,2.15-.1,2.89a7,7,0,0,1-.33,1.78,1.59,1.59,0,0,1-.62.89,1.82,1.82,0,0,1-.92.23,4.52,4.52,0,0,1-1.85-.69,31.38,31.38,0,0,0-3.12-1.48,36.4,36.4,0,0,0-4.34-1.48,20.6,20.6,0,0,0-5.63-.7,14.31,14.31,0,0,0-3.88.47,7.24,7.24,0,0,0-2.7,1.31,5.54,5.54,0,0,0-1.58,2,5.89,5.89,0,0,0-.53,2.47,4.92,4.92,0,0,0,1.25,3.42A11.4,11.4,0,0,0,486,81.06a37.17,37.17,0,0,0,4.64,2q2.6.92,5.27,2a48.74,48.74,0,0,1,5.26,2.54,19.92,19.92,0,0,1,4.64,3.55,16.35,16.35,0,0,1,3.29,5A17.63,17.63,0,0,1,510.36,103.11Z"/><path class="cls-8" d="M564.13,103.11a19.8,19.8,0,0,1-1.88,8.82,17.56,17.56,0,0,1-5.29,6.38,23.85,23.85,0,0,1-8.1,3.85,37.92,37.92,0,0,1-10.13,1.28,39.06,39.06,0,0,1-11.65-1.74,26.94,26.94,0,0,1-4-1.55,9.53,9.53,0,0,1-2.3-1.48,4.47,4.47,0,0,1-1.12-2.17,17.73,17.73,0,0,1-.4-4.37,30.19,30.19,0,0,1,.13-3.06,7.71,7.71,0,0,1,.4-1.85,1.69,1.69,0,0,1,.66-.92,2,2,0,0,1,1-.23,5,5,0,0,1,2.14.82c1,.55,2.12,1.16,3.52,1.81a37.17,37.17,0,0,0,4.91,1.85,21.69,21.69,0,0,0,6.35.85,15.49,15.49,0,0,0,4-.46,10,10,0,0,0,3-1.32,5.54,5.54,0,0,0,1.94-2.17,6.61,6.61,0,0,0,.66-3,5,5,0,0,0-1.22-3.39,10.66,10.66,0,0,0-3.23-2.47,38.31,38.31,0,0,0-4.54-2q-2.53-.91-5.2-2a48.16,48.16,0,0,1-5.2-2.56,19.84,19.84,0,0,1-4.54-3.56,16.05,16.05,0,0,1-3.22-5.06,18.74,18.74,0,0,1-1.22-7.11,18,18,0,0,1,1.65-7.73,16.77,16.77,0,0,1,4.73-6,22.67,22.67,0,0,1,7.54-3.88,33.51,33.51,0,0,1,10-1.38,36.06,36.06,0,0,1,5.36.39,41.61,41.61,0,0,1,4.71,1,21.92,21.92,0,0,1,3.55,1.29,11.72,11.72,0,0,1,2.08,1.18,3.27,3.27,0,0,1,.88,1,4.09,4.09,0,0,1,.4,1.18c.09.46.16,1,.23,1.71s.1,1.53.1,2.54c0,1.18,0,2.15-.1,2.89a8,8,0,0,1-.33,1.78,1.59,1.59,0,0,1-.62.89,1.89,1.89,0,0,1-.93.23,4.49,4.49,0,0,1-1.84-.69,30.62,30.62,0,0,0-3.13-1.48,35.79,35.79,0,0,0-4.34-1.48,20.47,20.47,0,0,0-5.62-.7,14.38,14.38,0,0,0-3.89.47,7.4,7.4,0,0,0-2.7,1.31,5.65,5.65,0,0,0-1.58,2,5.88,5.88,0,0,0-.52,2.47,4.88,4.88,0,0,0,1.25,3.42,11.4,11.4,0,0,0,3.29,2.43,36.54,36.54,0,0,0,4.64,2c1.73.61,3.49,1.28,5.26,2A48.88,48.88,0,0,1,555,87.58a19.92,19.92,0,0,1,4.64,3.55,16.54,16.54,0,0,1,3.29,5A17.63,17.63,0,0,1,564.13,103.11Z"/><path class="cls-8" d="M626.58,119.89a1.75,1.75,0,0,1-.66,1.45,4.6,4.6,0,0,1-2.07.76,28.62,28.62,0,0,1-4.18.23,29,29,0,0,1-4.31-.23,3.81,3.81,0,0,1-1.91-.76,1.9,1.9,0,0,1-.56-1.45v-4.67a26.41,26.41,0,0,1-8.26,6,23.92,23.92,0,0,1-10.29,2.17,28.86,28.86,0,0,1-8.59-1.21,19.36,19.36,0,0,1-6.78-3.62,16.23,16.23,0,0,1-4.44-6,20.14,20.14,0,0,1-1.58-8.29,18.9,18.9,0,0,1,2-8.92,16.42,16.42,0,0,1,6-6.25,30,30,0,0,1,9.91-3.65,70.69,70.69,0,0,1,13.75-1.19h5.73V80.8a18.88,18.88,0,0,0-.56-4.84,8.18,8.18,0,0,0-1.84-3.45,7.66,7.66,0,0,0-3.43-2,18.15,18.15,0,0,0-5.29-.66,27.41,27.41,0,0,0-7.41.92,44.37,44.37,0,0,0-5.76,2c-1.66.75-3.06,1.43-4.18,2a6,6,0,0,1-2.73.92,1.94,1.94,0,0,1-1.28-.46,3.3,3.3,0,0,1-.92-1.31,9.16,9.16,0,0,1-.56-2.11,17.88,17.88,0,0,1-.2-2.76,12.55,12.55,0,0,1,.33-3.23,5,5,0,0,1,1.25-2.14,12.34,12.34,0,0,1,3.23-2.1,37.57,37.57,0,0,1,5.39-2.14,48.45,48.45,0,0,1,6.75-1.61,44.14,44.14,0,0,1,7.53-.63,45,45,0,0,1,11.82,1.35,19.94,19.94,0,0,1,8.06,4.15,16.06,16.06,0,0,1,4.6,7.2,33.55,33.55,0,0,1,1.45,10.47ZM610.33,94.75H604a34.2,34.2,0,0,0-6.84.59,13.17,13.17,0,0,0-4.61,1.78A7.28,7.28,0,0,0,590,100a8.64,8.64,0,0,0-.82,3.85,7.38,7.38,0,0,0,2.33,5.79,9.32,9.32,0,0,0,6.49,2.11,12.08,12.08,0,0,0,6.41-1.78,26.39,26.39,0,0,0,6-5.2Z"/><path class="cls-8" d="M699.17,58.75c1.84,0,3.13.4,3.85,1.19a4.91,4.91,0,0,1,1.09,3.42v56.33a1.83,1.83,0,0,1-.4,1.16,2.94,2.94,0,0,1-1.32.82,11.07,11.07,0,0,1-2.53.49c-1.07.11-2.4.17-4,.17s-3-.06-4-.17a11.19,11.19,0,0,1-2.53-.49,3,3,0,0,1-1.32-.82,1.83,1.83,0,0,1-.39-1.16V72.18H661.2V99.75q0,4.81,1.51,7.21t5.4,2.4a10.77,10.77,0,0,0,2.37-.23,14.13,14.13,0,0,0,1.87-.53c.55-.19,1-.37,1.38-.52a2.65,2.65,0,0,1,1-.23,1.32,1.32,0,0,1,.75.23,1.53,1.53,0,0,1,.56.92,14.73,14.73,0,0,1,.36,1.88,22.43,22.43,0,0,1,.17,3,21.69,21.69,0,0,1-.33,4.38,5.07,5.07,0,0,1-.92,2.17,4.61,4.61,0,0,1-1.78,1.18,17.27,17.27,0,0,1-2.73.86,28,28,0,0,1-3.36.56,33.91,33.91,0,0,1-3.65.2,26.41,26.41,0,0,1-8.56-1.25,14.3,14.3,0,0,1-6-3.85,16,16,0,0,1-3.49-6.55,34.37,34.37,0,0,1-1.12-9.35V72.18h-7c-.84,0-1.47-.52-1.91-1.55a14.35,14.35,0,0,1-.66-5.16,26.45,26.45,0,0,1,.17-3.23,7.31,7.31,0,0,1,.49-2.07,2.4,2.4,0,0,1,.82-1.09,2,2,0,0,1,1.15-.33h7V45.66a2.06,2.06,0,0,1,.36-1.19,2.77,2.77,0,0,1,1.32-.89,10.48,10.48,0,0,1,2.56-.52c1.08-.11,2.41-.17,4-.17s3,.06,4,.17a10.09,10.09,0,0,1,2.54.52,3,3,0,0,1,1.31.89,1.9,1.9,0,0,1,.4,1.19V58.75Zm6.25-17.63q0,5-2,6.91t-7.57,1.91q-5.59,0-7.53-1.85c-1.3-1.23-1.94-3.44-1.94-6.64s.67-5.65,2-7,3.88-1.94,7.61-1.94,6.18.63,7.5,1.88S705.42,37.91,705.42,41.12Z"/></g></g></svg>