<svg xmlns="http://www.w3.org/2000/svg" xmlns:xlink="http://www.w3.org/1999/xlink" viewBox="0 0 431.19 404.08"><defs><style>.cls-1,.cls-4{fill:none;}.cls-1,.cls-2{stroke:#524ea0;}.cls-1,.cls-2,.cls-3,.cls-4{stroke-miterlimit:10;}.cls-2,.cls-3{fill:#514da0;}.cls-3,.cls-4{stroke:#524fa1;}.cls-5{font-size:120.76px;font-family:Calibri-Bold, Calibri;font-weight:700;}.cls-6{letter-spacing:-0.02em;}.cls-7{letter-spacing:-0.01em;}.cls-8{fill:url(#linear-gradient);}</style><linearGradient id="linear-gradient" x1="216.6" y1="293.52" x2="216.6" y2="354.47" gradientUnits="userSpaceOnUse"><stop offset="0" stop-color="#252525"/><stop offset="1" stop-color="#1e1e1e"/></linearGradient></defs><g id="Layer_2" data-name="Layer 2"><g id="Layer_1-2" data-name="Layer 1"><line class="cls-1" x1="215.81" y1="209.1" x2="215.02" y2="209.52"/><path class="cls-2" d="M346.74,71,337,65.7,314.46,53.57l-9.13-4.91-24.21-13-5.91-3.17L249.39,18.53l-5.84-3.15L216,.57,213,2.19l-30.45,16-.76.41L152.06,34.2l-1.45.77L120.87,50.62l-3.78,2L84.63,69.68,51.1,87.31l33.36,18,31.73,17.09,5.71,3.07,27.64,14.89,4,2.17,28.25,15.21,1.85,1,31.49,17h0l.18-.09,30.19-15.88,3.15-1.66,28.05-14.76,4.42-2.32,25.26-13.29,8.27-4.34,22.93-12.07,8.94-4.71h0l33.51-17.63Zm-40.8,21.46-24.61,13L276.26,108l-28.47,15-2.74,1.44-29.71,15.64-.47.24,0-.51-31.67-17.06-.11-.07h0l-30-16.15-3.36-1.81-28.3-15.23L118,87.64l3.37-1.78,29.09-15.28,2.11-1.12,29.67-15.61,1.75-.91,29.47-15.5,2.42-1.28,28.19,15.18,3.54,1.91,28.12,15.14,5.22,2.82,24.9,13.41,7.38,4Z"/><line class="cls-1" x1="215.34" y1="140.07" x2="214.86" y2="139.8"/><polygon class="cls-2" points="307.37 196.45 280.26 210.72 277.68 212.06 277.68 212.07 248.37 227.48 246.49 228.47 216.3 244.35 214.84 245.12 214.82 245.12 184.64 228.86 181.47 227.16 161.55 216.44 154.53 212.65 149.74 210.07 122.87 195.6 122.78 188.76 122.37 159.63 149.93 174.48 154.04 176.69 183.28 192.44 184.14 192.91 195.08 198.8 215.01 209.52 215.82 209.97 215.81 209.11 245.99 193.23 246.89 192.76 277.2 176.81 280.42 175.12 306.89 161.2 307.28 189.58 307.37 196.45"/><line class="cls-1" x1="346.42" y1="201.27" x2="346.42" y2="199.56"/><line class="cls-1" x1="355.02" y1="201.27" x2="355.02" y2="198.8"/><path class="cls-3" d="M369.84,217.08a22.15,22.15,0,0,0-18.4,16.36,22.14,22.14,0,0,0-19.22-15.73,18.68,18.68,0,0,0,14.2-18.15V119.65l8.6-4.74V198.8A18.7,18.7,0,0,0,369.84,217.08Z"/><line class="cls-4" x1="355.02" y1="114.91" x2="346.42" y2="119.65"/><text class="cls-5" transform="translate(0 361.92)">Di<tspan class="cls-6" x="105.78" y="0">r</tspan><tspan x="146.05" y="0">ass</tspan><tspan class="cls-7" x="302.01" y="0">a</tspan><tspan x="360.5" y="0">ti</tspan></text><path class="cls-8" d="M71.7,322.66A52.37,52.37,0,0,1,69,340.61a30.47,30.47,0,0,1-7.87,12.17,31.45,31.45,0,0,1-12.48,6.93,60.78,60.78,0,0,1-17.48,2.21H12.91a4.84,4.84,0,0,1-3.27-1.14A4.75,4.75,0,0,1,8.31,357V290.52a4.71,4.71,0,0,1,1.33-3.74,4.8,4.8,0,0,1,3.27-1.15H32.49A54.74,54.74,0,0,1,49.79,288a31.48,31.48,0,0,1,12,7.08,30.31,30.31,0,0,1,7.4,11.59A46.2,46.2,0,0,1,71.7,322.66Zm-16,.53a38.14,38.14,0,0,0-1.27-10.09A21.36,21.36,0,0,0,50.32,305a18.82,18.82,0,0,0-7.19-5.34,29.13,29.13,0,0,0-11.53-1.92H23.76v51.89h8.08A30.52,30.52,0,0,0,42.57,348a17.89,17.89,0,0,0,7.28-5,21.58,21.58,0,0,0,4.37-8.29A41.52,41.52,0,0,0,55.66,323.19Z"/><path class="cls-8" d="M99.53,289.52q0,4.49-1.83,6.19t-6.78,1.71q-5,0-6.75-1.65t-1.74-6c0-3,.6-5.06,1.8-6.22s3.47-1.74,6.81-1.74,5.54.56,6.72,1.68S99.53,286.65,99.53,289.52Zm-1.12,70.4a1.58,1.58,0,0,1-.36,1,2.52,2.52,0,0,1-1.2.74,10.47,10.47,0,0,1-2.27.44,43.28,43.28,0,0,1-7.2,0,10.47,10.47,0,0,1-2.27-.44A2.62,2.62,0,0,1,83.9,361a1.62,1.62,0,0,1-.35-1V307.44a1.64,1.64,0,0,1,.35-1,2.9,2.9,0,0,1,1.21-.77,10.65,10.65,0,0,1,2.27-.5,38.2,38.2,0,0,1,7.2,0,10.65,10.65,0,0,1,2.27.5,2.79,2.79,0,0,1,1.2.77,1.6,1.6,0,0,1,.36,1Z"/><path class="cls-8" d="M147,312.22c0,1.41,0,2.57-.11,3.48a10.54,10.54,0,0,1-.36,2.12,2,2,0,0,1-.62,1.06,1.52,1.52,0,0,1-1,.3,3.16,3.16,0,0,1-1.06-.21c-.39-.14-.84-.28-1.33-.44s-1-.31-1.62-.44a8.45,8.45,0,0,0-1.95-.21,6.6,6.6,0,0,0-2.47.5,10.58,10.58,0,0,0-2.57,1.56,19.19,19.19,0,0,0-2.77,2.83,46.76,46.76,0,0,0-3.09,4.37v32.78a1.58,1.58,0,0,1-.36,1,2.56,2.56,0,0,1-1.21.74,10.35,10.35,0,0,1-2.27.44,43.16,43.16,0,0,1-7.19,0,10.47,10.47,0,0,1-2.27-.44,2.62,2.62,0,0,1-1.21-.74,1.62,1.62,0,0,1-.35-1v-52.6a1.88,1.88,0,0,1,.29-1,2.16,2.16,0,0,1,1.06-.73,8.33,8.33,0,0,1,2-.45,28,28,0,0,1,3-.14,29.49,29.49,0,0,1,3.12.14,7,7,0,0,1,1.92.45,2.16,2.16,0,0,1,1,.73,1.81,1.81,0,0,1,.3,1v6.55a41,41,0,0,1,3.89-4.86,21.31,21.31,0,0,1,3.48-3,10.74,10.74,0,0,1,3.3-1.56,12.49,12.49,0,0,1,3.3-.45,16.37,16.37,0,0,1,1.65.09,15.82,15.82,0,0,1,1.83.3,11.89,11.89,0,0,1,1.65.47,3.31,3.31,0,0,1,1,.56,1.8,1.8,0,0,1,.47.65,4.94,4.94,0,0,1,.27,1,12.86,12.86,0,0,1,.17,1.86Q147,310.09,147,312.22Z"/><path class="cls-8" d="M198.29,360.1a1.56,1.56,0,0,1-.59,1.29,4,4,0,0,1-1.86.68,24.64,24.64,0,0,1-3.74.21,25,25,0,0,1-3.86-.21,3.26,3.26,0,0,1-1.71-.68,1.65,1.65,0,0,1-.5-1.29v-4.19a23.88,23.88,0,0,1-7.4,5.42,21.47,21.47,0,0,1-9.23,1.95,25.66,25.66,0,0,1-7.69-1.09,17.47,17.47,0,0,1-6.08-3.24,14.75,14.75,0,0,1-4-5.34,18.21,18.21,0,0,1-1.41-7.43,16.82,16.82,0,0,1,1.8-8,14.57,14.57,0,0,1,5.36-5.6,26.91,26.91,0,0,1,8.87-3.27,63.3,63.3,0,0,1,12.33-1.06h5.13v-3.19a16.9,16.9,0,0,0-.5-4.33,7.39,7.39,0,0,0-1.65-3.1,6.84,6.84,0,0,0-3.07-1.82,16.14,16.14,0,0,0-4.75-.59,24.45,24.45,0,0,0-6.63.82,37.38,37.38,0,0,0-5.16,1.83c-1.49.67-2.74,1.28-3.74,1.83a5.49,5.49,0,0,1-2.45.82,1.73,1.73,0,0,1-1.15-.41,3,3,0,0,1-.83-1.18,8.56,8.56,0,0,1-.5-1.89,15.62,15.62,0,0,1-.17-2.47,11.12,11.12,0,0,1,.29-2.89,4.49,4.49,0,0,1,1.12-1.92,10.77,10.77,0,0,1,2.89-1.88,33.88,33.88,0,0,1,4.84-1.92,45.36,45.36,0,0,1,6-1.45,44.38,44.38,0,0,1,17.33.65,18,18,0,0,1,7.23,3.72,14.44,14.44,0,0,1,4.12,6.45,30.05,30.05,0,0,1,1.3,9.38Zm-14.56-22.53h-5.66a30.59,30.59,0,0,0-6.13.53,11.76,11.76,0,0,0-4.13,1.6,6.52,6.52,0,0,0-2.33,2.56,7.75,7.75,0,0,0-.74,3.45,6.66,6.66,0,0,0,2.09,5.19,8.37,8.37,0,0,0,5.81,1.88,10.87,10.87,0,0,0,5.75-1.59,23.71,23.71,0,0,0,5.34-4.66Z"/><path class="cls-8" d="M250.12,345.06a17.69,17.69,0,0,1-1.68,7.9,15.65,15.65,0,0,1-4.75,5.72,21.47,21.47,0,0,1-7.25,3.45,34.05,34.05,0,0,1-9.08,1.15,35.14,35.14,0,0,1-10.44-1.56,25,25,0,0,1-3.53-1.39,8.64,8.64,0,0,1-2.07-1.32,4.19,4.19,0,0,1-1-1.95,16.07,16.07,0,0,1-.35-3.92,25.22,25.22,0,0,1,.11-2.74,6.83,6.83,0,0,1,.36-1.65,1.49,1.49,0,0,1,.59-.83,1.69,1.69,0,0,1,.88-.21,4.47,4.47,0,0,1,1.92.74q1.26.74,3.15,1.62a33,33,0,0,0,4.4,1.65,19.08,19.08,0,0,0,5.68.77,14.24,14.24,0,0,0,3.57-.41,9.07,9.07,0,0,0,2.71-1.18,4.93,4.93,0,0,0,1.74-1.95,5.88,5.88,0,0,0,.59-2.71,4.5,4.5,0,0,0-1.09-3,9.81,9.81,0,0,0-2.89-2.21,34.2,34.2,0,0,0-4.07-1.77c-1.51-.55-3.06-1.15-4.65-1.82a43.78,43.78,0,0,1-4.66-2.3,18,18,0,0,1-4.07-3.19,14.41,14.41,0,0,1-2.89-4.54,16.67,16.67,0,0,1-1.09-6.37,16.17,16.17,0,0,1,1.47-6.92,15.14,15.14,0,0,1,4.25-5.4,20.31,20.31,0,0,1,6.75-3.48,30.16,30.16,0,0,1,8.93-1.24,31.47,31.47,0,0,1,4.81.36,35,35,0,0,1,4.22.88,21.54,21.54,0,0,1,3.18,1.15,11.93,11.93,0,0,1,1.86,1.06,2.88,2.88,0,0,1,.79.89,3.66,3.66,0,0,1,.36,1.06c.07.41.14.92.2,1.53s.09,1.37.09,2.27c0,1.06,0,1.93-.09,2.6a6.68,6.68,0,0,1-.29,1.59,1.49,1.49,0,0,1-.56.8,1.7,1.7,0,0,1-.83.2,4,4,0,0,1-1.65-.62,30.64,30.64,0,0,0-2.8-1.32,31.33,31.33,0,0,0-3.89-1.33,18.9,18.9,0,0,0-5-.62,13.19,13.19,0,0,0-3.48.41,6.75,6.75,0,0,0-2.42,1.18,4.87,4.87,0,0,0-1.41,1.8,5.2,5.2,0,0,0-.48,2.21,4.45,4.45,0,0,0,1.12,3.07,10.43,10.43,0,0,0,3,2.18,33.56,33.56,0,0,0,4.16,1.77q2.32.82,4.72,1.8a40.62,40.62,0,0,1,4.71,2.27,17.53,17.53,0,0,1,4.16,3.18,14.75,14.75,0,0,1,2.95,4.51A15.71,15.71,0,0,1,250.12,345.06Z"/><path class="cls-8" d="M298.29,345.06a17.69,17.69,0,0,1-1.68,7.9,15.72,15.72,0,0,1-4.74,5.72,21.62,21.62,0,0,1-7.26,3.45,34.05,34.05,0,0,1-9.08,1.15,35.2,35.2,0,0,1-5.63-.44,34.79,34.79,0,0,1-4.8-1.12,24.7,24.7,0,0,1-3.54-1.39A8.75,8.75,0,0,1,259.5,359a4.11,4.11,0,0,1-1-1.95,16.59,16.59,0,0,1-.35-3.92,24.82,24.82,0,0,1,.12-2.74,6.43,6.43,0,0,1,.35-1.65,1.54,1.54,0,0,1,.59-.83,1.71,1.71,0,0,1,.88-.21,4.39,4.39,0,0,1,1.92.74c.85.49,1.9,1,3.16,1.62a32.86,32.86,0,0,0,4.39,1.65,19.15,19.15,0,0,0,5.69.77,14.22,14.22,0,0,0,3.56-.41,9.13,9.13,0,0,0,2.72-1.18,5.09,5.09,0,0,0,1.74-1.95,6,6,0,0,0,.59-2.71,4.55,4.55,0,0,0-1.09-3,10,10,0,0,0-2.89-2.21,34.93,34.93,0,0,0-4.07-1.77c-1.52-.55-3.07-1.15-4.66-1.82a43.78,43.78,0,0,1-4.66-2.3,18,18,0,0,1-4.07-3.19,14.41,14.41,0,0,1-2.89-4.54,16.87,16.87,0,0,1-1.09-6.37,16,16,0,0,1,1.48-6.92,15,15,0,0,1,4.24-5.4,20.31,20.31,0,0,1,6.75-3.48,30.28,30.28,0,0,1,8.94-1.24,31.33,31.33,0,0,1,4.8.36,35,35,0,0,1,4.22.88,20.73,20.73,0,0,1,3.18,1.15,11,11,0,0,1,1.86,1.06,3.06,3.06,0,0,1,.8.89,4,4,0,0,1,.35,1.06q.12.61.21,1.53c.05.61.08,1.37.08,2.27,0,1.06,0,1.93-.08,2.6a6.61,6.61,0,0,1-.3,1.59,1.44,1.44,0,0,1-.56.8,1.66,1.66,0,0,1-.82.2,3.93,3.93,0,0,1-1.66-.62,29.42,29.42,0,0,0-2.8-1.32,30.77,30.77,0,0,0-3.89-1.33,18.79,18.79,0,0,0-5-.62,13.19,13.19,0,0,0-3.48.41,6.75,6.75,0,0,0-2.42,1.18,5,5,0,0,0-1.41,1.8,5.19,5.19,0,0,0-.47,2.21,4.4,4.4,0,0,0,1.12,3.07,10.29,10.29,0,0,0,3,2.18,32.75,32.75,0,0,0,4.15,1.77q2.34.82,4.72,1.8a41.55,41.55,0,0,1,4.72,2.27,17.68,17.68,0,0,1,4.15,3.18,14.75,14.75,0,0,1,2.95,4.51A15.71,15.71,0,0,1,298.29,345.06Z"/><path class="cls-8" d="M354.25,360.1a1.56,1.56,0,0,1-.59,1.29,4,4,0,0,1-1.86.68,24.64,24.64,0,0,1-3.74.21,25.26,25.26,0,0,1-3.87-.21,3.26,3.26,0,0,1-1.7-.68,1.66,1.66,0,0,1-.51-1.29v-4.19a23.76,23.76,0,0,1-7.4,5.42,21.42,21.42,0,0,1-9.22,1.95,25.77,25.77,0,0,1-7.7-1.09,17.42,17.42,0,0,1-6.07-3.24,14.63,14.63,0,0,1-4-5.34,18.2,18.2,0,0,1-1.42-7.43,16.82,16.82,0,0,1,1.8-8,14.67,14.67,0,0,1,5.37-5.6,26.83,26.83,0,0,1,8.87-3.27,63.3,63.3,0,0,1,12.33-1.06h5.12v-3.19a16.46,16.46,0,0,0-.5-4.33,7.18,7.18,0,0,0-1.65-3.1,6.81,6.81,0,0,0-3.06-1.82,16.14,16.14,0,0,0-4.75-.59,24.35,24.35,0,0,0-6.63.82,37.38,37.38,0,0,0-5.16,1.83q-2.25,1-3.75,1.83a5.46,5.46,0,0,1-2.44.82,1.71,1.71,0,0,1-1.15-.41,3,3,0,0,1-.83-1.18,8,8,0,0,1-.5-1.89,15.56,15.56,0,0,1-.18-2.47,11.06,11.06,0,0,1,.3-2.89,4.39,4.39,0,0,1,1.12-1.92,10.77,10.77,0,0,1,2.89-1.88,33.26,33.26,0,0,1,4.83-1.92,45.52,45.52,0,0,1,6-1.45,44.38,44.38,0,0,1,17.33.65,17.85,17.85,0,0,1,7.22,3.72,14.37,14.37,0,0,1,4.13,6.45,30.05,30.05,0,0,1,1.3,9.38Zm-14.57-22.53H334a30.73,30.73,0,0,0-6.13.53,11.92,11.92,0,0,0-4.13,1.6,6.59,6.59,0,0,0-2.33,2.56,7.74,7.74,0,0,0-.73,3.45,6.66,6.66,0,0,0,2.09,5.19,8.36,8.36,0,0,0,5.81,1.88,10.9,10.9,0,0,0,5.75-1.59,23.46,23.46,0,0,0,5.33-4.66Z"/><path class="cls-8" d="M419.28,305.32a4.55,4.55,0,0,1,3.45,1.06,4.39,4.39,0,0,1,1,3.07v50.47a1.58,1.58,0,0,1-.36,1,2.55,2.55,0,0,1-1.18.74,9.88,9.88,0,0,1-2.27.44,35.32,35.32,0,0,1-3.56.15,36.14,36.14,0,0,1-3.63-.15,10,10,0,0,1-2.27-.44,2.61,2.61,0,0,1-1.18-.74,1.57,1.57,0,0,1-.35-1V317.35H385.26v24.7c0,2.87.45,5,1.36,6.46s2.51,2.15,4.83,2.15a10.57,10.57,0,0,0,2.13-.2,16.55,16.55,0,0,0,1.68-.47l1.24-.48a2.5,2.5,0,0,1,.91-.2,1.34,1.34,0,0,1,.68.2,1.46,1.46,0,0,1,.5.83,12.67,12.67,0,0,1,.32,1.68,20,20,0,0,1,.15,2.71,19.06,19.06,0,0,1-.3,3.92,4.46,4.46,0,0,1-.82,2,4.28,4.28,0,0,1-1.59,1.06,16.92,16.92,0,0,1-2.45.77,27,27,0,0,1-3,.5,32.25,32.25,0,0,1-3.27.17A23.39,23.39,0,0,1,380,362a12.54,12.54,0,0,1-5.37-3.45,14.28,14.28,0,0,1-3.13-5.86,31.29,31.29,0,0,1-1-8.38V317.35h-6.31c-.74,0-1.31-.46-1.71-1.39a13,13,0,0,1-.59-4.63,23.31,23.31,0,0,1,.15-2.88,7.27,7.27,0,0,1,.44-1.86,2.19,2.19,0,0,1,.74-1,1.81,1.81,0,0,1,1-.3h6.25V293.59a1.78,1.78,0,0,1,.33-1.06,2.4,2.4,0,0,1,1.18-.8,9.2,9.2,0,0,1,2.3-.47,35.32,35.32,0,0,1,3.56-.15,36.14,36.14,0,0,1,3.63.15,8.83,8.83,0,0,1,2.27.47,2.66,2.66,0,0,1,1.18.8,1.73,1.73,0,0,1,.35,1.06v11.73Zm5.6-15.8c0,3-.6,5.05-1.82,6.19s-3.48,1.71-6.78,1.71-5.6-.55-6.75-1.65-1.74-3.09-1.74-6,.59-5.06,1.79-6.22,3.47-1.74,6.81-1.74,5.55.56,6.73,1.68S424.88,286.65,424.88,289.52Z"/></g></g></svg>